# xmcd
#
# Track frame offsets: 
#        150
#        17101
#        30339
#        44371
#        62396
#        74492
#        89861
#        103796
#        116148
#        132031
#        146446
#        161610
#        179352
#        194404
#        210073
#        227430
#        240207
#        253905
#
# Disc length: 3580 seconds
#
# Revision: 0
# Processed by: cddbd v1.5.1PL2 Copyright (c) Steve Scherf et al.
# Submitted via: ExactAudioCopy v0.95b2
#
DISCID=f20dfa12
DTITLE=Various Artist - Promo Only Country Dec 2005
DYEAR=2005
DGENRE=Country
TTITLE0=Carrie Underwood - Jesus Take The Wheel
TTITLE1=Jamey Johnson - The Dollar
TTITLE2=Montgomery Gentry - She Don't Tell Me To
TTITLE3=Rockie Lynne - Lipstick
TTITLE4=Gretchen Wilson - I Don't Feel Like Loving You Today
TTITLE5=Sara Evans - Cheatin'
TTITLE6=Jason Aldean - Why
TTITLE7=Jace Everett - Bad Things
TTITLE8=Wynonna - Attitude
TTITLE9=Erika Jo - I'm Not Lisa
TTITLE10=Patty Loveless - Keep Your Distance
TTITLE11=Bering Strait - You Make Lovin' Fun
TTITLE12=Lila McCann Ft. Jim Brickman - I'm Amazed
TTITLE13=Hometown News - That's Country To Me
TTITLE14=Doug Stone - Everything
TTITLE15=Shawn King - In My Own Backyard
TTITLE16=Carolina Rain - Let's Get It On
TTITLE17=Zona Jones - I'll Give It To You
EXTD=
EXTT0=
EXTT1=
EXTT2=
EXTT3=
EXTT4=
EXTT5=
EXTT6=
EXTT7=
EXTT8=
EXTT9=
EXTT10=
EXTT11=
EXTT12=
EXTT13=
EXTT14=
EXTT15=
EXTT16=
EXTT17=
PLAYORDER=
